HIERARCHY
ROOT hip
{
	OFFSET 0.000000 0.000000 0.000000 
	CHANNELS 6 Xposition Yposition Zposition Xrotation Zrotation Yrotation
	JOINT abdomen
	{
		OFFSET 0.000000 3.402643 0.000000 
		CHANNELS 3 Xrotation Zrotation Yrotation
		JOINT chest
		{
			OFFSET 0.000000 8.438565 -0.680529 
			CHANNELS 3 Xrotation Zrotation Yrotation
			JOINT neck
			{
				OFFSET 0.000000 10.207942 -0.272212 
				CHANNELS 3 Xrotation Zrotation Yrotation
				JOINT head
				{
					OFFSET 0.000000 3.130431 0.000000 
					CHANNELS 3 Xrotation Zrotation Yrotation
					End Site
					{
						OFFSET 0.000000 3.130435 0.000000 
					}
				}
			}
			JOINT lCollar
			{
				OFFSET 3.470700 6.669187 -0.816635 
				CHANNELS 3 Yrotation Zrotation Xrotation
				JOINT lShldr
				{
					OFFSET 3.198488 0.000000 0.000000 
					CHANNELS 3 Zrotation Yrotation Xrotation
					JOINT lForeArm
					{
						OFFSET 10.139888 0.000000 0.000000 
						CHANNELS 3 Yrotation Zrotation Xrotation
						JOINT lHand
						{
							OFFSET 8.370511 0.000000 0.000000 
							CHANNELS 3 Zrotation Yrotation Xrotation
							End Site
							{
								OFFSET 4.083176 0.000000 0.000000 
							}
						}
					}
				}
			}
			JOINT rCollar
			{
				OFFSET -3.470700 6.669187 -0.816635 
				CHANNELS 3 Yrotation Zrotation Xrotation
				JOINT rShldr
				{
					OFFSET -3.198488 0.000000 0.000000 
					CHANNELS 3 Zrotation Yrotation Xrotation
					JOINT rForeArm
					{
						OFFSET -10.139888 0.000000 0.000000 
						CHANNELS 3 Yrotation Zrotation Xrotation
						JOINT rHand
						{
							OFFSET -8.370511 0.000000 0.000000 
							CHANNELS 3 Zrotation Yrotation Xrotation
							End Site
							{
								OFFSET -4.083176 0.000000 0.000000 
							}
						}
					}
				}
			}
		}
	}
	JOINT lThigh
	{
		OFFSET 5.308129 -1.633274 1.361059 
		CHANNELS 3 Xrotation Zrotation Yrotation
		JOINT lShin
		{
			OFFSET -2.041588 -20.007561 0.000000 
			CHANNELS 3 Xrotation Zrotation Yrotation
			JOINT lFoot
			{
				OFFSET 0.000000 -19.190928 -1.224953 
				CHANNELS 3 Xrotation Yrotation Zrotation
				End Site
				{
					OFFSET 0.000000 -2.449906 4.627600 
				}
			}
		}
	}
	JOINT rThigh
	{
		OFFSET -5.308129 -1.633274 1.361059 
		CHANNELS 3 Xrotation Zrotation Yrotation
		JOINT rShin
		{
			OFFSET 2.041588 -20.007561 0.000000 
			CHANNELS 3 Xrotation Zrotation Yrotation
			JOINT rFoot
			{
				OFFSET 0.000000 -19.190928 -1.224953 
				CHANNELS 3 Xrotation Yrotation Zrotation
				End Site
				{
					OFFSET 0.000000 -2.449906 4.627600 
				}
			}
		}
	}
}
MOTION
Frames: 10
Frame Time: 0.033333
-0.270690 52.464779 -0.270690 3.203125 0.000000 -0.009766 27.070311 -0.008748 -0.004475 -27.412109 -0.009635 0.001164 6.184201 -0.525132 0.111282 10.524219 0.508720 -0.030344 -9.500634 -7.133801 -25.000000 -51.705910 -23.038855 -6.719350 -30.888319 -2.278456 2.254069 -22.196676 -47.652050 60.856506 9.487199 7.092114 -25.000000 52.102924 21.512226 -8.967134 56.112099 2.825666 1.834396 35.957905 47.411758 61.969280 -15.084946 6.326616 0.322094 37.139809 -0.568698 -3.665786 1.019016 -0.519630 -4.282203 -0.673827 -5.575258 -0.985604 8.237467 1.708029 1.927592 10.078457 0.444832 3.611707 
-0.270690 57.339672 -0.270690 6.982422 0.000000 -0.009766 27.070311 -0.008748 -0.004475 -30.146481 -0.009569 0.001623 -0.515032 -0.525319 0.112961 10.524219 0.508720 -0.030344 -10.258604 -5.983162 -25.000000 -31.275915 -50.817692 -19.514868 -52.826008 -2.772434 1.895928 -22.196676 -47.652050 60.856506 10.243786 5.942900 -25.000000 31.227245 47.368202 -23.591120 64.545929 2.964147 1.635509 35.957905 47.411758 61.969280 -26.158333 6.190275 -0.109927 60.187653 0.873422 -4.482825 12.495310 -1.713829 -3.762523 3.221290 -5.554712 -1.091579 1.791869 1.840535 1.479817 30.597584 1.644825 3.260628 
-0.270690 61.975834 -0.270690 10.605469 0.000000 -0.009766 27.070311 -0.008748 -0.004475 -31.337891 -0.009533 0.001823 -3.669338 -0.525351 0.113761 10.524219 0.508720 -0.030344 -10.567434 -5.412965 -25.000000 17.357334 -67.961777 -64.273506 -70.483231 -3.045990 1.494123 -22.196676 -47.652050 60.856506 10.552043 5.373401 -25.000000 1.443743 61.784451 -50.804398 68.735077 3.018839 1.535945 35.957905 47.411758 61.969280 -36.847404 5.965035 -0.474877 78.125359 2.169888 -4.672916 21.456688 -2.441735 -3.189131 4.293486 -5.553338 -1.116428 -0.779673 1.889909 1.310801 44.560627 2.346518 2.802887 
-0.270690 65.879112 -0.270690 13.798828 0.000000 -0.009766 27.070311 -0.008748 -0.004475 -30.712889 -0.009552 0.001717 -2.712303 -0.525349 0.113537 10.524219 0.508720 -0.030344 -10.477047 -5.587725 -25.000000 41.605675 -68.452339 -89.318832 -72.005394 -3.064145 1.456806 -22.196676 -47.652050 60.856506 10.461864 5.547938 -25.000000 -28.016890 64.654922 -80.332550 68.009735 3.010355 1.550617 35.957905 47.411758 61.969280 -48.134506 5.673798 -0.848501 91.424393 3.095364 -4.564470 28.216303 -2.822535 -2.789160 1.902384 -5.561240 -1.053304 1.264022 1.857472 1.451269 51.748543 2.692499 2.484466 
-0.270690 68.904999 -0.270690 16.552734 0.000000 -0.009766 27.070311 -0.008748 -0.004475 -27.587889 -0.009632 0.001194 3.772085 -0.525234 0.111947 10.524219 0.508720 -0.030344 -9.789115 -6.729657 -25.000000 23.206934 -70.616814 -77.698410 -58.429672 -2.874044 1.774651 -22.196676 -47.652050 60.856506 9.775283 6.688451 -25.000000 -38.601784 64.294548 -95.006546 60.261597 2.899430 1.737578 35.957905 47.411758 61.969280 -63.395878 5.165799 -1.198046 102.257202 3.834853 -4.309965 34.335953 -3.025796 -2.667062 -4.139713 -5.574848 -0.897038 8.374893 1.717871 1.935371 51.602364 2.682934 2.472432 
-0.270690 71.170334 -0.270690 18.984375 0.000000 -0.009766 27.070311 -0.008748 -0.004475 -22.802732 -0.009698 0.000386 14.133491 -0.512525 0.103208 10.524219 0.508720 -0.030344 -8.440382 -8.364411 -25.000000 15.178638 -72.608910 -77.011520 -44.197731 -2.591608 2.066404 -22.196676 -47.652050 60.856506 8.411464 8.341571 -25.000000 -38.109940 66.451797 -101.102440 47.793167 2.667058 1.992463 35.957905 47.411758 61.969280 -81.675598 4.443269 -1.442402 111.880920 4.439321 -3.980939 40.380104 -3.194004 -2.689884 -11.913166 -5.566031 -0.692569 18.077080 1.415432 2.566285 47.204372 2.523758 2.616210 
-0.270690 72.869400 -0.270690 21.191406 0.000000 -0.009766 27.070311 -0.008748 -0.004475 -17.578125 0.000059 -0.009752 25.031986 -0.499179 0.096631 10.524219 0.508720 -0.030344 -6.719018 -9.796085 -21.606276 16.917427 -76.035339 -85.108337 -30.899427 -2.276801 2.261340 -22.196676 -47.652050 60.856506 6.672067 9.786719 -21.605228 -33.703468 70.876610 -102.454643 34.250080 2.354992 2.214711 35.957905 47.411758 61.969280 -99.213257 3.740252 -1.441106 119.392227 4.872866 -3.669305 45.190697 -3.272902 -2.808484 -20.674250 -5.524776 -0.471262 29.046288 0.952163 3.229686 40.923176 2.248936 2.811300 
-0.270690 74.152016 -0.270690 23.271484 0.000000 -0.009766 27.070311 -0.008748 -0.004475 -12.783202 0.000058 -0.009747 35.354252 -0.498451 0.096982 10.524219 0.508720 -0.030344 -4.844416 -10.838066 -11.167264 27.110086 -80.086090 -99.863083 -19.154568 -1.972289 2.362500 -22.196676 -47.652050 60.856506 4.799575 10.822061 -11.165701 -26.988016 75.502014 -98.999084 22.268726 2.049119 2.334133 35.957905 47.411758 61.969280 -113.480049 3.173996 -1.284195 124.228516 5.135724 -3.420620 47.957127 -3.251956 -2.989267 -30.208769 -5.438362 -0.236170 40.760395 0.335449 3.804405 33.957634 1.936823 3.029425 
-0.270690 74.984772 -0.270690 25.244141 0.000000 -0.009766 27.070311 -0.008748 -0.004475 -9.013672 0.000057 -0.009743 43.596436 -0.497884 0.097310 10.524219 0.508720 -0.030344 -3.224415 -11.418361 -2.787439 45.647282 -82.683418 -120.620323 -10.161377 -1.723500 2.405272 -22.196676 -47.652050 60.856506 3.182052 11.397378 -2.785622 -18.866690 78.139717 -91.655151 13.536317 1.809029 2.382886 35.957905 47.411758 61.969280 -122.874924 2.841918 -1.116180 126.139320 5.234154 -3.295101 48.317802 -3.132745 -3.214268 -40.581371 -5.302223 -0.000670 53.054886 -0.427693 4.259241 27.209190 1.590916 3.193743 
-0.270690 75.034805 -0.270690 26.972658 0.000000 -0.009766 27.070311 -0.008748 -0.004475 -6.591795 0.000056 -0.009741 49.026119 -0.497517 0.097551 10.524219 0.508720 -0.030344 -2.115772 -11.671077 2.749397 42.446209 -76.819618 -113.632233 -9.028885 -1.690289 2.403082 -22.196676 -47.652050 60.856506 2.075402 11.647030 2.749329 -15.234023 77.764565 -87.068275 9.027593 1.681456 2.394111 35.957905 47.411758 61.969280 -126.616554 2.724548 -1.085519 125.120461 5.169506 -3.357824 46.086922 -2.920136 -3.462300 -51.844490 -5.106981 0.217537 65.605011 -1.278518 4.557784 21.933355 1.315884 3.301508 
